<svg width="19" height="19" viewBox="0 0 19 19" fill="none" xmlns="http://www.w3.org/2000/svg">
<path fill-rule="evenodd" clip-rule="evenodd" d="M4.07844 4.07811C4.25659 3.90001 4.49818 3.79996 4.75009 3.79996C5.002 3.79996 5.24359 3.90001 5.42174 4.07811L9.50009 8.15646L13.5784 4.07811C13.6661 3.98738 13.7709 3.915 13.8868 3.86521C14.0027 3.81542 14.1274 3.78922 14.2535 3.78812C14.3796 3.78703 14.5047 3.81106 14.6215 3.85883C14.7382 3.9066 14.8443 3.97714 14.9335 4.06633C15.0227 4.15553 15.0933 4.2616 15.141 4.37835C15.1888 4.4951 15.2128 4.6202 15.2117 4.74634C15.2106 4.87248 15.1844 4.99714 15.1346 5.11304C15.0848 5.22895 15.0125 5.33378 14.9217 5.42141L10.8434 9.49976L14.9217 13.5781C15.0948 13.7573 15.1905 13.9973 15.1884 14.2463C15.1862 14.4954 15.0863 14.7337 14.9102 14.9098C14.734 15.086 14.4958 15.1859 14.2467 15.1881C13.9976 15.1902 13.7576 15.0945 13.5784 14.9214L9.50009 10.8431L5.42174 14.9214C5.24257 15.0945 5.0026 15.1902 4.75351 15.1881C4.50442 15.1859 4.26615 15.086 4.09001 14.9098C3.91387 14.7337 3.81396 14.4954 3.8118 14.2463C3.80964 13.9973 3.90539 13.7573 4.07844 13.5781L8.15679 9.49976L4.07844 5.42141C3.90034 5.24326 3.80029 5.00167 3.80029 4.74976C3.80029 4.49785 3.90034 4.25626 4.07844 4.07811Z" fill="#D9D5D2"/>
</svg>
