<svg width="32" height="32" viewBox="0 0 32 32" fill="none" xmlns="http://www.w3.org/2000/svg">
<path d="M21.403 11.0761L22.9233 12.9126C23.0973 13.1219 23.2486 13.2846 23.3167 13.3853C23.7705 13.8503 24.0277 14.478 24.0277 15.1289C23.9823 15.8961 23.4982 16.423 23.0444 16.9887L21.9779 18.2673L21.4257 18.9338C21.403 18.957 21.3954 18.988 21.3879 19.019C21.3803 19.05 21.3879 19.081 21.403 19.1043C21.4181 19.1353 21.4332 19.1585 21.4635 19.174C21.4862 19.1895 21.5165 19.1973 21.5467 19.1973H27.0986C27.9458 19.1973 29.0123 19.9257 28.9518 21.0338C28.9518 21.5375 28.7476 22.018 28.3996 22.3744C28.0441 22.7309 27.5676 22.9324 27.0684 22.9324H18.3699C17.795 22.9324 16.2595 22.9944 15.8284 21.6538C15.7376 21.3748 15.7225 21.0726 15.7906 20.7858C15.9192 20.3596 16.1158 19.9567 16.373 19.6002C16.8117 18.9338 17.2807 18.2751 17.7496 17.6319C18.3547 16.7872 18.9674 15.9736 19.5801 15.1134C19.6028 15.0824 19.6103 15.0514 19.6103 15.0127C19.6103 14.9739 19.5952 14.9429 19.5801 14.9119L17.3714 12.254C17.3563 12.2385 17.3412 12.223 17.3185 12.2075C17.2958 12.1997 17.2731 12.192 17.2504 12.192C17.2277 12.192 17.205 12.1997 17.1823 12.2075C17.1596 12.2152 17.1445 12.2307 17.1294 12.254C16.5394 13.0599 13.945 16.6323 13.3928 17.3607C12.8406 18.0814 11.4791 18.1279 10.7228 17.3607L7.26605 13.8581C7.24335 13.8348 7.2131 13.8193 7.18284 13.8116C7.15259 13.8038 7.12233 13.8116 7.09208 13.8193C7.06182 13.8348 7.03913 13.8503 7.024 13.8813C7.00887 13.9045 6.99374 13.9355 7.00131 13.9665V20.7006C7.00887 21.181 6.87272 21.646 6.60042 22.0412C6.32812 22.4364 5.94993 22.7309 5.50365 22.8936C5.21623 22.9944 4.91367 23.0254 4.61868 22.9789C4.32368 22.9324 4.03626 22.8239 3.79421 22.6456C3.5446 22.4674 3.34794 22.2349 3.21179 21.9637C3.07564 21.6925 3 21.3903 3 21.0881V8.97605C3.02269 8.54209 3.17397 8.12364 3.44627 7.77492C3.71857 7.43396 4.08164 7.18598 4.49765 7.06974C4.85316 6.97675 5.23135 6.97675 5.58686 7.06974C5.94236 7.17048 6.26761 7.35646 6.53235 7.62769L11.8498 12.9979C11.8649 13.0134 11.8876 13.0289 11.9027 13.0366C11.9254 13.0444 11.9481 13.0444 11.9708 13.0444C11.9935 13.0444 12.0162 13.0366 12.0313 13.0211C12.054 13.0134 12.0691 12.9979 12.0843 12.9746L15.8586 7.69743C16.0326 7.48045 16.252 7.30997 16.5016 7.19373C16.7512 7.07749 17.0235 7.00775 17.2958 7.00775H27.1137C27.386 7.00775 27.6508 7.06974 27.8928 7.17823C28.1349 7.29447 28.3542 7.4572 28.5358 7.65868C28.7097 7.86016 28.8459 8.10039 28.9215 8.36386C28.9972 8.62733 29.0199 8.89856 28.982 9.16978C28.914 9.63473 28.6795 10.0609 28.324 10.3632C27.9685 10.6654 27.5146 10.8359 27.0457 10.8281H21.5467C21.5165 10.8281 21.4938 10.8359 21.4711 10.8514C21.4484 10.8669 21.4257 10.8901 21.4181 10.9134C21.403 10.9366 21.403 10.9676 21.403 10.9908C21.3803 11.0218 21.3879 11.0528 21.403 11.0761Z" fill="url(#paint0_linear_3119_13568)"/>
<defs>
<linearGradient id="paint0_linear_3119_13568" x1="4.08333" y1="11" x2="29" y2="11" gradientUnits="userSpaceOnUse">
<stop stop-color="#EF2690"/>
<stop offset="1" stop-color="#AB27FE"/>
</linearGradient>
</defs>
</svg>
