<svg width="32" height="32" viewBox="0 0 32 32" fill="none" xmlns="http://www.w3.org/2000/svg">
<path d="M14.2692 6.04835H10.6729C7.79592 12.2004 12.4577 14.8894 15.1483 15.4648L13.9495 19.3884C12.7348 18.4467 10.7795 18.0282 9.79384 17.8974C5.55824 17.662 4.20118 20.7103 4.03982 21.9779C3.72015 24.4889 5.31849 26.9215 9.07459 26.9215C12.0795 26.9215 14.3758 25.2998 15.1483 24.4889C18.0892 27 20.7958 27.1569 21.7814 26.9215C26.7043 26.5449 27.5621 22.004 27.3756 19.7807H24.1789C23.4117 25.8072 19.0642 23.338 16.9864 21.3501L18.6646 15.7002C30.0128 13.1892 29.9329 4.322 24.1789 4.00811C19.5757 3.75701 16.8265 9.39643 16.0274 12.2475C12.1914 11.6198 13.2569 7.85317 14.2692 6.04835Z" fill="white"/>
<path d="M19.5437 12.2475C19.9699 10.6258 21.7814 6.99461 23.7793 7.2254C26.4965 7.53927 22.6605 11.5413 19.5437 12.2475Z" fill="#303746"/>
<path d="M12.8307 22.2918C11.7918 21.2716 8.03567 20.0946 7.31642 22.2918C7.00817 23.2334 9.47418 24.8813 12.8307 22.2918Z" fill="#303746"/>
</svg>
