<svg
  viewBox="0 0 40 40"
  fill="none"
  xmlns="http://www.w3.org/2000/svg"
>
  <rect
    width="40"
    height="40"
    rx="5"
    fill="#D13B75"
  />
  <path
    d="M25.4738 16.4112L27.0141 18.091C27.1904 18.2824 27.3436 18.4312 27.4126 18.5234C27.8724 18.9486 28.1329 19.5227 28.1329 20.1181C28.087 20.8198 27.5965 21.3017 27.1367 21.8191L26.0562 22.9886L25.4968 23.5981C25.4738 23.6194 25.4661 23.6478 25.4585 23.6761C25.4508 23.7045 25.4585 23.7328 25.4738 23.7541C25.4891 23.7824 25.5044 23.8037 25.5351 23.8179C25.5581 23.832 25.5887 23.8391 25.6194 23.8391H31.2442C32.1025 23.8391 33.183 24.5054 33.1217 25.5189C33.1217 25.9796 32.9148 26.419 32.5623 26.7451C32.2021 27.0711 31.7193 27.2554 31.2136 27.2554H22.4008C21.8184 27.2554 20.2628 27.3121 19.826 26.0859C19.734 25.8308 19.7187 25.5543 19.7877 25.2921C19.9179 24.9023 20.1172 24.5337 20.3777 24.2077C20.8222 23.5981 21.2973 22.9957 21.7724 22.4074C22.3855 21.6349 23.0062 20.8906 23.6269 20.1039C23.6499 20.0756 23.6576 20.0472 23.6576 20.0118C23.6576 19.9763 23.6423 19.948 23.6269 19.9196L21.3893 17.4886C21.3739 17.4744 21.3586 17.4602 21.3356 17.446C21.3126 17.4389 21.2897 17.4319 21.2667 17.4319C21.2437 17.4319 21.2207 17.4389 21.1977 17.446C21.1747 17.4531 21.1594 17.4673 21.1441 17.4886C20.5463 18.2257 17.9178 21.4931 17.3584 22.1593C16.799 22.8185 15.4196 22.861 14.6533 22.1593L11.1512 18.9557C11.1282 18.9344 11.0975 18.9203 11.0669 18.9132C11.0362 18.9061 11.0056 18.9132 10.9749 18.9203C10.9443 18.9344 10.9213 18.9486 10.906 18.977C10.8906 18.9982 10.8753 19.0266 10.883 19.0549V25.2141C10.8906 25.6536 10.7527 26.0788 10.4768 26.4403C10.2009 26.8018 9.81777 27.0711 9.36564 27.22C9.07443 27.3121 8.7679 27.3404 8.46904 27.2979C8.17017 27.2554 7.87897 27.1562 7.63374 26.9931C7.38086 26.8301 7.18161 26.6175 7.04367 26.3694C6.90573 26.1214 6.8291 25.8449 6.8291 25.5685V14.4905C6.85209 14.0936 7.00536 13.7108 7.28123 13.3919C7.55711 13.08 7.92495 12.8532 8.34642 12.7469C8.7066 12.6618 9.08976 12.6618 9.44993 12.7469C9.81011 12.839 10.1396 13.0091 10.4078 13.2572L15.7951 18.169C15.8104 18.1832 15.8334 18.1973 15.8487 18.2044C15.8717 18.2115 15.8947 18.2115 15.9177 18.2115C15.9407 18.2115 15.9637 18.2044 15.979 18.1902C16.002 18.1832 16.0173 18.169 16.0327 18.1477L19.8566 13.321C20.0329 13.1225 20.2551 12.9666 20.508 12.8603C20.7609 12.754 21.0368 12.6902 21.3126 12.6902H31.2595C31.5354 12.6902 31.8036 12.7469 32.0489 12.8461C32.2941 12.9524 32.5163 13.1013 32.7002 13.2856C32.8765 13.4698 33.0144 13.6896 33.0911 13.9305C33.1677 14.1715 33.1907 14.4196 33.1524 14.6677C33.0834 15.0929 32.8458 15.4827 32.4857 15.7592C32.1255 16.0356 31.6657 16.1915 31.1906 16.1844H25.6194C25.5887 16.1844 25.5657 16.1915 25.5428 16.2057C25.5198 16.2199 25.4968 16.2411 25.4891 16.2624C25.4738 16.2837 25.4738 16.312 25.4738 16.3333C25.4508 16.3616 25.4585 16.39 25.4738 16.4112Z"
    fill="white"
  />
</svg>
