<svg width="32" height="32" viewBox="0 0 32 32" fill="none" xmlns="http://www.w3.org/2000/svg">
<path fill-rule="evenodd" clip-rule="evenodd" d="M11.8444 5H5.48893C5.21893 5 5 5.21883 5 5.48892V11.8444C5 12.1144 5.21893 12.3334 5.48893 12.3334H11.8444C12.1145 12.3334 12.3334 12.1144 12.3334 11.8444V5.48892C12.3334 5.21883 12.1145 5 11.8444 5ZM19.1807 12.3336H12.8252C12.5552 12.3336 12.3363 12.5524 12.3363 12.8224V19.178C12.3363 19.448 12.5552 19.6669 12.8252 19.6669H19.1807C19.4507 19.6669 19.6697 19.448 19.6697 19.178V12.8224C19.6697 12.5524 19.4507 12.3336 19.1807 12.3336ZM20.1556 5.00001H26.5112C26.7812 5.00001 27 5.21884 27 5.48893V11.8444C27 12.1144 26.7812 12.3334 26.5112 12.3334H20.1556C19.8856 12.3334 19.6666 12.1144 19.6666 11.8444V5.48893C19.6666 5.21884 19.8856 5.00001 20.1556 5.00001ZM11.8445 19.6665H5.48895C5.21895 19.6665 5.00002 19.8853 5.00002 20.1553V26.511C5.00002 26.781 5.21895 26.9999 5.48895 26.9999H11.8445C12.1146 26.9999 12.3334 26.781 12.3334 26.511V20.1553C12.3334 19.8853 12.1146 19.6665 11.8445 19.6665ZM20.1556 19.6665H26.5112C26.7812 19.6665 27 19.8853 27 20.1553V26.511C27 26.781 26.7812 26.9999 26.5112 26.9999H20.1556C19.8856 26.9999 19.6666 26.781 19.6666 26.511V20.1553C19.6666 19.8853 19.8856 19.6665 20.1556 19.6665Z" fill="white"/>
</svg>
