<svg xmlns="http://www.w3.org/2000/svg" width="139" height="34" viewBox="0 0 139 34" fill="none">
<path fill-rule="evenodd" clip-rule="evenodd" d="M29.3278 24.7634C29.3166 24.7488 29.2788 24.735 29.2656 24.7279C26.6375 23.3179 23.7308 21.6933 20.6955 19.9244C17.6603 18.1554 14.813 16.4264 12.2891 14.8337C12.2888 14.8342 12.2886 14.8348 12.2884 14.8353L7.06079 11.4171C3.45699 8.95969 -0.21007 6.33006 0.00938463 5.94482C0.195622 5.61789 3.02787 6.87 6.36421 8.50192C7.87003 9.23846 9.66096 8.74435 10.867 7.57214C15.6231 2.94971 22.9999 1.84434 29.0021 5.34257C35.0044 8.8408 37.7584 15.8505 36.1898 22.3306C35.792 23.9739 36.2676 25.7889 37.6525 26.7376C40.7211 28.8395 43.2115 30.6918 43.0253 31.0187C42.7921 31.428 38.3923 29.3817 34.0622 27.2192C34.0559 27.2288 34.0495 27.1961 34.0432 27.2057L29.3278 24.7634ZM10.8998 15.2137C11.545 15.6356 11.8343 16.4276 11.7351 17.1983C11.2323 21.1074 12.9235 25.262 16.4756 27.3322C20.0157 29.3955 24.4008 28.8019 27.4902 26.4225C28.0997 25.9531 28.9198 25.8118 29.6019 26.1645L32.6935 27.7634C33.0453 27.9453 33.143 28.4091 32.88 28.7074C28.1755 34.0419 20.1614 35.7123 13.8104 32.0109C7.44444 28.3007 4.85674 20.4227 7.08866 13.6187C7.21293 13.2399 7.65817 13.0941 7.98956 13.3108L10.8998 15.2137ZM21.1603 19.1046C26.4398 22.1877 29.811 24.4682 30.6627 22.1641C32.3229 17.672 30.5807 12.4945 26.3369 10.0212C22.0932 7.54789 16.7909 8.61973 13.7813 12.3254C12.101 14.3943 15.5752 15.843 21.1603 19.1046Z" fill="#FF6C3A"/>
<path d="M127.635 31.544C125.537 31.544 123.65 31.0799 121.972 30.1518C120.294 29.1971 118.97 27.8579 118 26.1342C117.056 24.4105 116.584 22.4216 116.584 20.1675C116.584 17.9134 117.069 15.9245 118.039 14.2008C119.035 12.477 120.385 11.1511 122.09 10.2229C123.794 9.26827 125.695 8.79093 127.792 8.79093C129.889 8.79093 131.79 9.26827 133.494 10.2229C135.198 11.1511 136.536 12.477 137.506 14.2008C138.502 15.9245 139 17.9134 139 20.1675C139 22.4216 138.489 24.4105 137.466 26.1342C136.47 27.8579 135.107 29.1971 133.376 30.1518C131.672 31.0799 129.758 31.544 127.635 31.544ZM127.635 26.6911C128.631 26.6911 129.562 26.4524 130.427 25.9751C131.318 25.4712 132.026 24.7287 132.55 23.7475C133.075 22.7663 133.337 21.573 133.337 20.1675C133.337 18.0725 132.786 16.4681 131.685 15.3543C130.61 14.214 129.286 13.6439 127.713 13.6439C126.14 13.6439 124.816 14.214 123.741 15.3543C122.693 16.4681 122.168 18.0725 122.168 20.1675C122.168 22.2625 122.68 23.8801 123.702 25.0204C124.751 26.1342 126.062 26.6911 127.635 26.6911Z" fill="#FF6C3A"/>
<path d="M109.124 13.7234V24.3839C109.124 25.1265 109.294 25.6701 109.635 26.0148C110.002 26.3331 110.605 26.4922 111.444 26.4922H114V31.186H110.54C105.899 31.186 103.579 28.9054 103.579 24.3442V13.7234H100.983V9.14892H103.579V3.69932H109.124V9.14892H114V13.7234H109.124Z" fill="#FF6C3A"/>
<path d="M74.6449 20.0879C74.6449 17.8603 75.0774 15.8847 75.9426 14.161C76.834 12.4373 78.0269 11.1113 79.5213 10.1832C81.042 9.25501 82.733 8.79093 84.5945 8.79093C86.22 8.79093 87.6357 9.12241 88.8417 9.78538C90.074 10.4484 91.0571 11.2837 91.7912 12.2914V9.14893H97.3362V31.186H91.7912V27.964C91.0833 28.9982 90.1002 29.8601 88.8417 30.5496C87.6095 31.2125 86.1806 31.544 84.5551 31.544C82.7199 31.544 81.042 31.0667 79.5213 30.112C78.0269 29.1573 76.834 27.8181 75.9426 26.0944C75.0774 24.3442 74.6449 22.342 74.6449 20.0879ZM91.7912 20.1675C91.7912 18.815 91.529 17.6614 91.0047 16.7068C90.4803 15.7256 89.7725 14.9831 88.8811 14.4792C87.9896 13.9488 87.0327 13.6836 86.0102 13.6836C84.9877 13.6836 84.0439 13.9356 83.1787 14.4394C82.3135 14.9433 81.6056 15.6858 81.0551 16.667C80.5307 17.6217 80.2685 18.762 80.2685 20.0879C80.2685 21.4139 80.5307 22.5807 81.0551 23.5884C81.6056 24.5696 82.3135 25.3254 83.1787 25.8557C84.0701 26.3861 85.0139 26.6513 86.0102 26.6513C87.0327 26.6513 87.9896 26.3994 88.8811 25.8955C89.7725 25.3651 90.4803 24.6226 91.0047 23.6679C91.529 22.6868 91.7912 21.5199 91.7912 20.1675Z" fill="#FF6C3A"/>
<path d="M67.9075 6.52361C66.9375 6.52361 66.1247 6.21865 65.4693 5.60871C64.8401 4.97226 64.5255 4.18996 64.5255 3.26181C64.5255 2.33365 64.8401 1.5646 65.4693 0.954673C66.1247 0.318224 66.9375 0 67.9075 0C68.8776 0 69.6772 0.318224 70.3065 0.954673C70.9619 1.5646 71.2896 2.33365 71.2896 3.26181C71.2896 4.18996 70.9619 4.97226 70.3065 5.60871C69.6772 6.21865 68.8776 6.52361 67.9075 6.52361ZM70.6211 9.14896V31.186H65.1154V9.14896H70.6211Z" fill="#FF6C3A"/>
<path d="M50.6575 26.0547L55.0114 12.6735C55.3807 11.5385 55.5005 10.3357 55.3625 9.14898H62.0229L53.961 31.1861H47.1865C46.486 29.108 46.2893 28.5409 45.7366 27.0099L40.7558 13.2127C40.3867 12.1902 39.7831 11.2707 38.9945 10.5298L37.525 9.14898H42.7652C44.196 9.14898 45.4719 10.06 45.951 11.4236L46.3334 12.5119L50.6575 26.0547Z" fill="#FF6C3A"/>
</svg>