<svg
          viewBox="0 0 122 122"
          fill="none"
          xmlns="http://www.w3.org/2000/svg"
        >
          <g clipPath="url(#clip0_54_459)">
            <path
              fillRule="evenodd"
              clipRule="evenodd"
              d="M85.0486 64.3824C85.0533 64.3465 85.0579 64.3106 85.0625 64.2747C77.7582 64.5372 69.6002 64.6905 60.9935 64.698C52.3868 64.7054 44.2286 64.5661 36.9239 64.3163C36.9241 64.3177 36.9242 64.3192 36.9244 64.3206L21.6498 63.5518C10.9973 62.8096 0.000933641 61.7828 6.23719e-08 60.7028C-0.000792206 59.7863 7.54625 58.9409 16.6272 58.2752C20.7257 57.9748 23.9363 54.7353 25.0789 50.7878C29.5846 35.2214 43.9381 23.8341 60.9582 23.8194C77.9783 23.8046 92.3515 35.1672 96.884 50.7257C98.0335 54.6712 101.25 57.9051 105.349 58.1993C114.431 58.8513 121.979 59.6884 121.98 60.6049C121.981 61.7523 110.134 62.8526 98.2943 63.623C98.2925 63.651 98.2907 63.6791 98.2888 63.7071L85.0486 64.3824ZM34.4294 66.8224C36.3147 66.9173 37.892 68.228 38.617 69.9709C42.2948 78.812 50.9391 85.4739 61.0115 85.4652C71.0499 85.4565 79.6593 78.821 83.343 70.0205C84.0698 68.2842 85.6431 66.9795 87.5229 66.8837L96.0428 66.4492C97.0124 66.3997 97.7836 67.2552 97.5862 68.2058C94.055 85.2069 79.0316 98.5657 61.0228 98.5813C42.9715 98.5969 27.8977 85.2038 24.3831 68.149C24.1874 67.1994 24.9577 66.3457 25.926 66.3944L34.4294 66.8224ZM60.9867 62.4026C75.9648 62.4026 85.9077 63.0584 84.9213 57.1652C82.9983 45.6761 73.0031 36.9251 60.9695 36.9355C48.9359 36.9459 38.9558 45.7142 37.0527 57.2066C35.9902 63.623 45.1418 62.4026 60.9867 62.4026Z"
              fill="#898A95"
            />
          </g>
          <defs>
            <clipPath id="clip0_54_459">
              <rect width="122" height="122" fill="white" />
            </clipPath>
          </defs>
        </svg>