<svg width="32" height="32" viewBox="0 0 32 32" fill="none" xmlns="http://www.w3.org/2000/svg">
<path d="M20.2892 4.87219L26.2505 10.3415C26.7579 10.8061 27.0077 11.2762 26.9998 11.7498C26.992 12.2235 26.7737 12.6553 26.3469 13.047C25.9004 13.457 25.4185 13.6647 24.9032 13.6738C24.3879 13.6811 23.8766 13.4515 23.3691 12.9869L17.2721 7.39369C16.5798 6.75785 15.9111 6.30785 15.268 6.04367C14.6248 5.7795 13.9482 5.73759 13.2402 5.91978C12.5302 6.10015 11.769 6.56473 10.9528 7.31171C9.82782 8.34472 9.29089 9.31397 9.34596 10.2195C9.40103 11.1249 9.9596 12.065 11.0197 13.0361L17.1659 18.6767C17.6792 19.1467 17.931 19.6168 17.9231 20.0832C17.9152 20.5514 17.695 20.9832 17.2603 21.3822C16.8276 21.7794 16.3497 21.9871 15.8305 22.0035C15.3112 22.0199 14.794 21.7921 14.2826 21.3221L8.32127 15.8528C7.35164 14.9637 6.65146 14.122 6.22074 13.3276C5.79001 12.5333 5.62874 11.6351 5.74084 10.633C5.84115 9.77491 6.13813 8.94413 6.63376 8.13885C7.12743 7.33357 7.83547 6.51008 8.75396 5.66654C9.84749 4.66268 10.8919 3.89384 11.887 3.3582C12.8803 2.82256 13.842 2.52559 14.7704 2.46365C15.7006 2.4017 16.6172 2.57296 17.5239 2.97742C18.4305 3.38188 19.351 4.01226 20.2872 4.87219H20.2892Z" fill="url(#paint0_linear_3119_13572)"/>
<path d="M10.9371 26.9408L4.97771 21.4714C4.47027 21.005 4.22049 20.5368 4.22836 20.0631C4.23623 19.5894 4.45454 19.1576 4.88133 18.7659C5.32779 18.356 5.80966 18.1483 6.32495 18.1392C6.84025 18.1319 7.35162 18.3596 7.85905 18.826L13.9541 24.4193C14.6484 25.0551 15.3151 25.5051 15.9583 25.7693C16.6014 26.0335 17.278 26.0735 17.988 25.8932C18.698 25.7128 19.4591 25.2482 20.2754 24.4994C21.4004 23.4664 21.9373 22.4972 21.8822 21.5917C21.8272 20.6862 21.2686 19.7461 20.2085 18.7732L16.9338 15.7944C16.4205 15.3244 16.1687 14.8543 16.1766 14.3879C16.1845 13.9197 16.4047 13.4879 16.8394 13.0889C17.2721 12.6917 17.75 12.484 18.2692 12.4676C18.7885 12.4512 19.3057 12.679 19.8171 13.149L22.905 15.9566C23.8746 16.8457 24.5748 17.6874 25.0055 18.4817C25.4362 19.2761 25.5975 20.1743 25.4854 21.1763C25.3851 22.0344 25.0881 22.8652 24.5925 23.6705C24.0988 24.4757 23.3908 25.2992 22.4723 26.1428C21.3787 27.1466 20.3344 27.9155 19.3392 28.4511C18.344 28.9868 17.3822 29.2856 16.4519 29.3475C15.5216 29.4094 14.6051 29.2382 13.6984 28.8337C12.7917 28.4293 11.8713 27.7989 10.9351 26.9389L10.9371 26.9408Z" fill="url(#paint1_linear_3119_13572)"/>
<path d="M14.6543 12.8284C15.8633 12.8284 16.8433 11.9205 16.8433 10.8006C16.8433 9.6807 15.8633 8.77284 14.6543 8.77284C13.4453 8.77284 12.4653 9.6807 12.4653 10.8006C12.4653 11.9205 13.4453 12.8284 14.6543 12.8284Z" fill="url(#paint2_radial_3119_13572)"/>
<defs>
<linearGradient id="paint0_linear_3119_13572" x1="25.27" y1="8.05866" x2="7.28614" y2="16.6864" gradientUnits="userSpaceOnUse">
<stop stop-color="#201C1B"/>
<stop offset="0.36" stop-color="#77390D"/>
<stop offset="0.67" stop-color="#EA8101"/>
<stop offset="1" stop-color="#F4B852"/>
</linearGradient>
<linearGradient id="paint1_linear_3119_13572" x1="6.4668" y1="23.9797" x2="27.5911" y2="17.1926" gradientUnits="userSpaceOnUse">
<stop stop-color="#1F1D1C"/>
<stop offset="0.37" stop-color="#77390D"/>
<stop offset="0.67" stop-color="#EA8101"/>
<stop offset="1" stop-color="#F4FB52"/>
</linearGradient>
<radialGradient id="paint2_radial_3119_13572" cx="0" cy="0" r="1" gradientUnits="userSpaceOnUse" gradientTransform="translate(14.6543 10.8024) scale(2.18903 2.02777)">
<stop stop-color="#F4B852"/>
<stop offset="0.33" stop-color="#EA8101"/>
<stop offset="0.64" stop-color="#77390D"/>
<stop offset="1" stop-color="#211C1D"/>
</radialGradient>
</defs>
</svg>
