<svg
                viewBox="0 0 30 30"
                fill="none"
                xmlns="http://www.w3.org/2000/svg"
              >
                <path
                  d="M9 6.25C7.61929 6.25 6.5 7.36929 6.5 8.75V21.25C6.5 22.6308 7.61929 23.75 9 23.75H25C26.3808 23.75 27.5 22.6308 27.5 21.25V18.75H23.75C21.6789 18.75 20 17.0711 20 15C20 12.9289 21.6789 11.25 23.75 11.25H27.5V8.75C27.5 7.36929 26.3808 6.25 25 6.25H9Z"
                  fill="#1C2033"
                />
                <path
                  d="M25 15C25 15.6904 24.4404 16.25 23.75 16.25C23.0596 16.25 22.5 15.6904 22.5 15C22.5 14.3096 23.0596 13.75 23.75 13.75C24.4404 13.75 25 14.3096 25 15Z"
                  fill="#1C2033"
                />
              </svg>