<svg width="32" height="32" viewBox="0 0 32 32" fill="none" xmlns="http://www.w3.org/2000/svg">
<path d="M27.0042 26.6428V22.6649C27.0042 22.5072 26.9416 22.3568 26.8298 22.245L9.90453 5.31965C9.79276 5.20788 9.64232 5.14521 9.4846 5.14521H5.50684C5.31046 5.14521 5.15063 5.30503 5.15063 5.50141V9.19714C5.15063 9.35487 5.21331 9.50528 5.32508 9.61706L11.4004 15.6923C11.5393 15.8313 11.5393 16.0569 11.4004 16.1959L5.25509 22.3411C5.18824 22.4079 5.15063 22.4988 5.15063 22.5929V26.6428C5.15063 26.839 5.31046 26.999 5.50684 26.999H12.1535C12.3499 26.999 12.5097 26.839 12.5097 26.6428V24.2569C12.5097 24.1629 12.5473 24.072 12.6142 24.0051L15.9108 20.7084C16.0498 20.5695 16.2754 20.5695 16.4144 20.7084L22.5314 26.8256C22.6432 26.9373 22.7936 27 22.9513 27H26.647C26.8434 27 27.0032 26.8401 27.0032 26.6438L27.0042 26.6428Z" fill="white"/>
<path d="M18.1379 10.413H21.467C21.6644 10.413 21.8253 10.5739 21.8253 10.7713V14.1003C21.8253 14.42 22.2118 14.5799 22.4374 14.3531L27.0043 9.77894C27.0711 9.71207 27.1088 9.62121 27.1088 9.52614V5.52017C27.1088 5.32275 26.9488 5.16188 26.7504 5.16188L22.6849 5.15666C22.5899 5.15666 22.4991 5.19426 22.4311 5.26112L17.8841 9.80087C17.6585 10.0265 17.8182 10.413 18.1369 10.413H18.1379Z" fill="#EE7A30"/>
</svg>
